<?xml version="1.0" standalone="no"?>
<svg xmlns="http://www.w3.org/2000/svg" viewBox="0 0 135.504 30.664" width="135.504" height="30.664"><g fill="#42b997" color="#42b997" transform="translate(0, 0) scale(0.29)"><svg width="100.0" height="100.0" x="0.0" y="0.0" viewBox="0 0 100 100"><path d="M90.925,27.907L74.241,46.013c-0.021,0.021-0.044,0.041-0.067,0.062c-2.786,2.745-6.414,4.116-10.044,4.116  c-2.165,0-4.332-0.488-6.319-1.465l-14.3,14.3l1.052,1.052L18.756,89.885c-0.001,0.001-0.001,0.001-0.001,0.001  c-1.044,1.044-2.372,1.631-3.736,1.762c-0.195,0.019-0.391,0.028-0.588,0.028c-0.097,0-0.195-0.002-0.292-0.007  c-0.586-0.028-1.169-0.14-1.729-0.336c-0.093-0.032-0.186-0.068-0.278-0.105c-0.735-0.299-1.425-0.746-2.022-1.343  c-0.597-0.597-1.044-1.286-1.343-2.022c-0.037-0.091-0.073-0.184-0.105-0.278c-0.196-0.56-0.308-1.142-0.336-1.729  c-0.014-0.293-0.007-0.587,0.021-0.879c0.13-1.363,0.718-2.691,1.762-3.736c0.001-0.001,0.001-0.001,0.001-0.001l25.805-25.805  l1.052,1.052l14.3-14.3c-2.627-5.348-1.721-11.993,2.727-16.442l0.006,0.006L72.096,9.078c0.558-0.558,1.184-0.754,1.725-0.754  c0.535,0,0.988,0.191,1.21,0.413L56.012,27.757l0.002,0.002L75.033,8.74c0.446,0.446,0.768,1.826-0.34,2.935L58.02,29.767  l4.097,4.097l18.092-16.673c0.558-0.558,1.184-0.754,1.725-0.753c0.535,0,0.988,0.191,1.21,0.413L64.125,35.87l0.002,0.002  l19.019-19.019c0.446,0.446,0.768,1.826-0.34,2.935L66.133,37.88l4.103,4.103l18.093-16.672c0.558-0.558,1.184-0.754,1.725-0.753  c0.535,0,0.988,0.191,1.21,0.413L72.244,43.99l0.002,0.002l19.019-19.019C91.711,25.418,92.034,26.798,90.925,27.907z   M61.647,55.437l-1.053,1.053l-2.907-2.907l-6.539,6.539l2.906,2.906l-1.052,1.052l25.806,25.805c2.387,2.387,6.257,2.386,8.644,0  c2.387-2.387,2.386-6.257,0-8.644L61.647,55.437z M36.925,51.799l9.49-9.49l-2.909-2.909L24.914,20.809  c-1.905-1.905-7.346-6.059-9.673-3.957c-0.001,0.001-0.003,0.003-0.003,0.003c-4.066,4.077,1.451,16.193,12.325,27.067  C30.654,47.014,33.846,49.671,36.925,51.799z"></path></svg></g><line x1="41" y1="1" x2="41" y2="28" stroke="#53bdba" stroke-linecap="round"></line><path fill="#53bdba" fill-rule="nonzero" d="M2.33 20.28L2.33 20.28Q0.96 19.87 0.48 19.50Q0 19.13 0 18.48L0 18.48Q0 17.76 0.34 16.45Q0.67 15.14 1.21 13.54Q1.75 11.93 2.45 10.18Q3.14 8.42 3.86 6.82Q4.58 5.21 5.27 3.88Q5.95 2.54 6.48 1.80L6.48 1.80L6.31 0.79Q6.65 0.79 7.25 0.96Q7.85 1.13 8.46 1.37Q9.07 1.61 9.54 1.86Q10.01 2.11 10.06 2.28L10.06 2.28Q9.94 2.86 9.86 4.02Q9.79 5.18 9.79 6.50L9.79 6.50Q9.79 9.12 10.00 11.63Q10.20 14.14 10.94 16.73L10.94 16.73Q11.33 14.81 11.77 12.90Q12.22 10.99 12.70 9.25Q13.18 7.51 13.66 6.02Q14.14 4.54 14.58 3.42Q15.02 2.30 15.41 1.67Q15.79 1.03 16.10 0.98L16.10 0.98Q16.37 1.03 16.68 1.19Q16.99 1.34 17.28 1.56Q17.57 1.78 17.81 2.04Q18.05 2.30 18.19 2.57L18.19 2.57Q17.42 2.88 16.67 4.03Q15.91 5.18 15.23 6.83Q14.54 8.47 13.96 10.39Q13.37 12.31 12.92 14.17Q12.48 16.03 12.23 17.62Q11.98 19.20 11.95 20.16L11.95 20.16Q11.95 20.21 11.98 20.23L11.98 20.23Q11.90 20.26 11.82 20.26Q11.74 20.26 11.66 20.26L11.66 20.26Q10.56 20.26 9.71 19.98Q8.86 19.70 8.59 19.20L8.59 19.20Q8.09 17.18 7.75 15.31Q7.42 13.44 7.19 11.57Q6.96 9.70 6.83 7.79Q6.70 5.88 6.62 3.79L6.62 3.79Q6.17 4.51 5.66 5.68Q5.16 6.84 4.68 8.23Q4.20 9.62 3.76 11.16Q3.31 12.70 2.98 14.16Q2.64 15.62 2.45 16.93Q2.26 18.24 2.26 19.20L2.26 19.20Q2.26 19.70 2.27 19.92Q2.28 20.14 2.33 20.28ZM22.49 17.93L22.49 17.93Q22.03 17.54 21.88 16.97Q21.72 16.39 21.72 15.98L21.72 15.98Q21.72 15.48 21.84 15.12L21.84 15.12Q21.74 15.12 21.41 15.50Q21.07 15.89 20.68 16.42Q20.28 16.94 19.90 17.45Q19.51 17.95 19.32 18.19L19.32 18.19Q19.01 18.53 18.73 18.72Q18.46 18.91 18.29 18.94L18.29 18.94Q17.90 18.91 17.48 18.78Q17.06 18.65 16.69 18.41Q16.32 18.17 16.04 17.83Q15.77 17.50 15.67 17.06L15.67 17.06Q15.67 16.39 15.71 15.96Q15.74 15.53 15.86 15.02L15.86 15.02Q16.08 14.11 16.50 12.96Q16.92 11.81 17.47 10.69Q18.02 9.58 18.71 8.60Q19.39 7.63 20.16 7.08L20.16 7.08Q20.38 7.08 20.66 7.12Q20.95 7.15 21.25 7.25Q21.55 7.34 21.83 7.48Q22.10 7.61 22.30 7.82L22.30 7.82Q22.08 8.06 21.20 9.43Q20.33 10.80 19.25 13.37L19.25 13.37Q19.13 13.63 18.96 14.14Q18.79 14.64 18.62 15.19Q18.46 15.74 18.35 16.27Q18.24 16.80 18.24 17.11L18.24 17.11Q18.24 17.30 18.30 17.40Q18.36 17.50 18.41 17.54L18.41 17.54Q18.77 17.40 19.32 16.75Q19.87 16.10 20.86 14.76L20.86 14.76Q21.10 14.42 21.42 13.99Q21.74 13.56 22.08 13.07Q22.42 12.58 22.72 12.05Q23.02 11.52 23.21 10.99L23.21 10.99Q23.30 10.70 23.46 10.31Q23.62 9.91 23.84 9.48Q24.07 9.05 24.37 8.60Q24.67 8.16 25.08 7.78L25.08 7.78Q25.39 7.78 25.75 7.85Q26.11 7.92 26.44 8.03Q26.76 8.14 27 8.27Q27.24 8.40 27.36 8.54L27.36 8.54Q26.93 9.60 26.40 10.63Q25.87 11.66 25.42 12.66Q24.96 13.66 24.65 14.64Q24.34 15.62 24.34 16.56L24.34 16.56Q24.34 17.06 24.42 17.44Q24.50 17.81 24.60 18.06Q24.70 18.31 24.78 18.48Q24.86 18.65 24.86 18.77L24.86 18.77Q24.86 18.79 24.82 18.84L24.82 18.84Q24.79 18.86 24.77 18.86L24.77 18.86Q24.60 18.86 24.34 18.79Q24.07 18.72 23.75 18.59Q23.42 18.46 23.10 18.29Q22.78 18.12 22.49 17.93ZM30.50 9.26L29.14 9.26Q29.02 9.12 28.92 8.65Q28.82 8.18 28.82 7.85L28.82 7.85Q29.45 7.90 30.02 7.93Q30.60 7.97 31.08 7.99L31.08 7.99Q31.44 7.27 31.86 6.56Q32.28 5.86 32.68 5.27Q33.07 4.68 33.42 4.27Q33.77 3.86 33.96 3.74L33.96 3.74Q34.20 3.74 34.57 3.83Q34.94 3.91 35.33 4.04Q35.71 4.18 36.02 4.32Q36.34 4.46 36.46 4.61L36.46 4.61Q35.74 5.52 35.22 6.30Q34.70 7.08 34.10 8.09L34.10 8.09Q34.58 8.09 35.08 8.06Q35.57 8.04 36.07 7.99L36.07 7.99Q36.19 8.11 36.26 8.29Q36.34 8.47 36.34 8.66L36.34 8.66Q35.16 9.10 33.48 9.14L33.48 9.14Q32.88 10.30 32.41 11.44Q31.94 12.58 31.62 13.63Q31.30 14.69 31.12 15.62Q30.94 16.56 30.94 17.30L30.94 17.30Q30.94 18.36 31.73 18.48L31.73 18.48Q32.45 18.38 33.10 18.12Q33.74 17.86 34.25 17.45L34.25 17.45Q34.39 17.66 34.42 17.81L34.42 17.81Q34.27 18.02 33.92 18.31Q33.58 18.60 33.17 18.88Q32.76 19.15 32.38 19.34Q31.99 19.54 31.80 19.56L31.80 19.56Q31.20 19.54 30.60 19.30Q30 19.06 29.51 18.70Q29.02 18.34 28.70 17.89Q28.39 17.45 28.39 17.02L28.39 17.02Q28.39 16.44 28.55 15.56Q28.70 14.69 28.99 13.66Q29.28 12.62 29.66 11.50Q30.05 10.37 30.50 9.26L30.50 9.26ZM35.59 17.98L35.59 17.98Q35.71 17.28 36.01 16.14Q36.31 15 36.72 13.72Q37.13 12.43 37.58 11.14Q38.04 9.84 38.47 8.81L38.47 8.81Q38.78 8.06 39.02 7.64Q39.26 7.22 39.55 6.94L39.55 6.94Q39.89 6.98 40.25 7.10Q40.61 7.22 40.94 7.39Q41.28 7.56 41.54 7.74Q41.81 7.92 41.95 8.09L41.95 8.09Q41.30 8.86 40.81 9.84Q40.32 10.82 39.82 12.36L39.82 12.36Q41.11 11.21 42.11 10.15Q43.10 9.10 43.97 7.80L43.97 7.80Q44.11 7.68 44.47 7.68L44.47 7.68Q44.81 7.68 45.12 7.79Q45.43 7.90 45.55 8.09L45.55 8.09Q45.12 9.24 45.12 10.37L45.12 10.37Q45.12 11.42 45.43 11.95L45.43 11.95Q45.41 12.10 45.11 12.50Q44.81 12.91 44.45 13.27L44.45 13.27Q43.80 12.94 43.30 12.35Q42.79 11.76 42.55 11.06L42.55 11.06Q41.42 11.86 40.63 12.61Q39.84 13.37 39.28 14.29Q38.71 15.22 38.32 16.42Q37.92 17.62 37.56 19.27L37.56 19.27Q37.34 19.25 37.04 19.12Q36.74 18.98 36.44 18.79Q36.14 18.60 35.90 18.38Q35.66 18.17 35.59 17.98ZM45.86 16.85L45.86 16.85Q45.86 16.63 45.90 16.31Q45.94 15.98 46.03 15.44Q46.13 14.90 46.28 14.14Q46.44 13.37 46.68 12.29L46.68 12.29Q46.73 12.05 46.90 11.52Q47.06 10.99 47.34 10.40Q47.62 9.82 48.01 9.26Q48.41 8.71 48.96 8.45L48.96 8.45Q49.37 8.54 50.04 8.94Q50.71 9.34 51.19 10.03L51.19 10.03Q50.64 10.66 50.27 11.28Q49.90 11.90 49.60 12.58Q49.30 13.25 49.04 13.97Q48.79 14.69 48.48 15.48L48.48 15.48Q48.22 16.15 48 16.86Q47.78 17.57 47.76 18.10L47.76 18.10Q47.76 18.53 47.75 18.71Q47.74 18.89 47.62 18.89L47.62 18.89Q47.52 18.89 47.23 18.77Q46.94 18.65 46.64 18.40Q46.34 18.14 46.10 17.76Q45.86 17.38 45.86 16.85ZM50.45 6.43L50.45 6.43Q50.45 6.29 50.52 6L50.52 6Q50.40 5.88 50.32 5.64Q50.23 5.40 50.23 5.21L50.23 5.21Q50.23 4.99 50.29 4.62Q50.35 4.25 50.45 3.82Q50.54 3.38 50.69 2.92Q50.83 2.45 50.98 2.06L50.98 2.06Q51.26 2.06 51.68 2.22Q52.10 2.38 52.54 2.63Q52.97 2.88 53.33 3.18Q53.69 3.48 53.88 3.74L53.88 3.74Q53.62 4.01 53.18 4.48Q52.75 4.94 52.34 5.46Q51.94 5.98 51.60 6.43Q51.26 6.89 51.17 7.08L51.17 7.08Q50.88 7.03 50.66 6.83Q50.45 6.62 50.45 6.43ZM60.31 17.09L60.31 17.09Q60.91 18.12 60.91 19.08L60.91 19.08Q60.91 19.30 60.88 19.48Q60.84 19.66 60.79 19.85L60.79 19.85Q60.38 19.80 59.94 19.78Q59.50 19.75 59.02 19.75L59.02 19.75Q58.44 19.75 57.85 19.79Q57.26 19.82 56.54 19.90Q55.82 19.97 54.94 20.09Q54.05 20.21 52.87 20.40L52.87 20.40Q52.32 20.21 51.77 19.64Q51.22 19.08 50.74 18.29L50.74 18.29Q50.98 17.76 51.34 16.98Q51.70 16.20 52.18 15.08Q52.66 13.97 53.24 12.47Q53.83 10.97 54.50 9L54.50 9Q54.94 7.70 55.25 6.72Q55.56 5.74 55.81 4.81Q56.06 3.89 56.30 2.88Q56.54 1.87 56.83 0.55L56.83 0.55Q57.79 0.74 58.50 1.26Q59.21 1.78 59.86 2.74L59.86 2.74Q59.66 3.05 59.35 3.74Q59.04 4.44 58.62 5.44Q58.20 6.43 57.70 7.69Q57.19 8.95 56.64 10.39L56.64 10.39Q56.11 11.81 55.61 13.06Q55.10 14.30 54.71 15.31Q54.31 16.32 54.07 17.04Q53.83 17.76 53.83 18.12L53.83 18.12Q54.22 18.10 54.53 18.07Q54.84 18.05 55.18 17.99Q55.51 17.93 55.91 17.84Q56.30 17.76 56.86 17.62L56.86 17.62Q57.34 17.50 57.74 17.41Q58.15 17.33 58.55 17.27Q58.94 17.21 59.36 17.17Q59.78 17.14 60.31 17.09ZM62.33 16.85L62.33 16.85Q62.33 16.63 62.36 16.31Q62.40 15.98 62.50 15.44Q62.59 14.90 62.75 14.14Q62.90 13.37 63.14 12.29L63.14 12.29Q63.19 12.05 63.36 11.52Q63.53 10.99 63.80 10.40Q64.08 9.82 64.48 9.26Q64.87 8.71 65.42 8.45L65.42 8.45Q65.83 8.54 66.50 8.94Q67.18 9.34 67.66 10.03L67.66 10.03Q67.10 10.66 66.73 11.28Q66.36 11.90 66.06 12.58Q65.76 13.25 65.51 13.97Q65.26 14.69 64.94 15.48L64.94 15.48Q64.68 16.15 64.46 16.86Q64.25 17.57 64.22 18.10L64.22 18.10Q64.22 18.53 64.21 18.71Q64.20 18.89 64.08 18.89L64.08 18.89Q63.98 18.89 63.70 18.77Q63.41 18.65 63.11 18.40Q62.81 18.14 62.57 17.76Q62.33 17.38 62.33 16.85ZM66.91 6.43L66.91 6.43Q66.91 6.29 66.98 6L66.98 6Q66.86 5.88 66.78 5.64Q66.70 5.40 66.70 5.21L66.70 5.21Q66.70 4.99 66.76 4.62Q66.82 4.25 66.91 3.82Q67.01 3.38 67.15 2.92Q67.30 2.45 67.44 2.06L67.44 2.06Q67.73 2.06 68.15 2.22Q68.57 2.38 69 2.63Q69.43 2.88 69.79 3.18Q70.15 3.48 70.34 3.74L70.34 3.74Q70.08 4.01 69.65 4.48Q69.22 4.94 68.81 5.46Q68.40 5.98 68.06 6.43Q67.73 6.89 67.63 7.08L67.63 7.08Q67.34 7.03 67.13 6.83Q66.91 6.62 66.91 6.43ZM69.12 25.39L69.12 25.39Q68.52 25.15 68.40 24.48L68.40 24.48Q68.30 23.83 67.58 23.42L67.58 23.42Q67.78 22.20 68.02 20.95Q68.26 19.70 68.63 18.11Q69 16.51 69.56 14.39Q70.13 12.26 70.99 9.24L70.99 9.24Q70.20 9.24 69.74 9.26Q69.29 9.29 68.86 9.36L68.86 9.36Q68.76 9.26 68.70 9.10Q68.64 8.93 68.64 8.78L68.64 8.78Q68.88 8.69 69.62 8.53Q70.37 8.38 71.26 8.26L71.26 8.26Q71.83 6.43 72.58 4.98Q73.32 3.53 74.18 2.50Q75.05 1.46 76.01 0.91Q76.97 0.36 77.95 0.36L77.95 0.36Q78.24 0.36 78.50 0.40Q78.77 0.43 78.91 0.43L78.91 0.43Q79.13 0.26 79.49 0.13Q79.85 0 80.11 0L80.11 0Q80.40 0 80.86 0.31L80.86 0.31Q80.66 0.65 80.45 1.22Q80.23 1.80 80.09 2.35L80.09 2.35Q79.49 4.13 78.82 4.66L78.82 4.66Q78.55 4.66 78.53 3.96L78.53 3.96Q78.50 3.46 78.38 2.98L78.38 2.98Q78.29 2.76 78.25 2.59Q78.22 2.42 78.22 2.16L78.22 2.16Q78.22 2.02 78.24 1.81Q78.26 1.61 78.34 1.13L78.34 1.13Q77.93 1.13 77.44 1.63Q76.94 2.14 76.40 3.06Q75.86 3.98 75.31 5.26Q74.76 6.53 74.26 8.06L74.26 8.06L76.27 7.99Q76.39 8.11 76.48 8.53Q76.56 8.95 76.58 9.41L76.58 9.41L73.94 9.26Q73.03 11.98 72.24 14.45Q71.45 16.92 70.82 19.01Q70.20 21.10 69.76 22.74Q69.31 24.38 69.12 25.39ZM84.50 8.52L84.50 8.52Q84.41 10.01 83.98 11.08Q83.54 12.14 82.74 12.95Q81.94 13.75 80.78 14.40Q79.63 15.05 78.10 15.65L78.10 15.65Q78.10 15.79 78.08 15.95Q78.07 16.10 78.07 16.27L78.07 16.27Q78.07 16.58 78.12 16.92Q78.17 17.26 78.29 17.54Q78.41 17.83 78.62 18.01Q78.84 18.19 79.18 18.19L79.18 18.19Q79.82 18.19 80.45 17.90Q81.07 17.62 81.64 17.20Q82.20 16.78 82.69 16.28Q83.18 15.79 83.57 15.38L83.57 15.38Q83.81 15.60 83.98 15.79L83.98 15.79Q82.90 17.23 81.61 18.18Q80.33 19.13 79.18 19.39L79.18 19.39Q77.52 19.20 76.60 18.18Q75.67 17.16 75.67 15.72L75.67 15.72Q75.67 14.74 75.95 13.72Q76.22 12.70 76.72 11.75Q77.21 10.80 77.87 9.96Q78.53 9.12 79.28 8.50Q80.04 7.87 80.84 7.51Q81.65 7.15 82.44 7.15L82.44 7.15Q83.54 7.30 84.50 8.52ZM82.85 9.31L82.85 9.31Q82.20 9.41 81.50 9.84Q80.81 10.27 80.20 10.99Q79.58 11.71 79.08 12.67Q78.58 13.63 78.29 14.74L78.29 14.74Q80.21 13.78 81.48 12.37Q82.75 10.97 82.85 9.31Z" transform="translate(51, 5.272)"></path></svg>